<svg xmlns="http://www.w3.org/2000/svg" width="56.625" height="56.625" viewBox="0 0 56.625 56.625"><defs><style>.a{fill:#555;}.b{fill:#146cda;}</style></defs><g transform="translate(0 0)"><path class="a" d="M48.3,31.04v-4.5h1.466a1.106,1.106,0,0,0,1.106-1.106V18.8a1.105,1.105,0,0,0-.057-.352L44.882.754A1.106,1.106,0,0,0,43.833,0H7.041A1.106,1.106,0,0,0,5.992.754L.058,18.45A1.1,1.1,0,0,0,0,18.8v6.636a1.106,1.106,0,0,0,1.106,1.106H2.572v18.8A1.106,1.106,0,0,0,3.678,46.45h26.77A13.272,13.272,0,1,0,48.3,31.04ZM32.032,24.331V19.907h16.63v4.424ZM21.054,26.543H29.82v4.28a.421.421,0,0,1-.092.313.136.136,0,0,1-.081-.016l-3.794-1.541a1.107,1.107,0,0,0-.833,0L21.227,31.12a.138.138,0,0,1-.081.016.421.421,0,0,1-.092-.313v-4.28Zm0-2.212V19.907H29.82v4.424ZM28.562,2.212,29.733,17.7H21.141L22.312,2.212ZM48.231,17.7H31.951L30.78,2.212H43.038ZM7.836,2.212H20.094L18.923,17.7H2.643ZM2.212,24.331V19.907h16.63v4.424ZM4.783,44.238V42.026H9.76a1.106,1.106,0,0,0,0-2.212H4.783V26.543H18.842v4.28a2.522,2.522,0,0,0,1.068,2.148,2.264,2.264,0,0,0,2.149.2L25.437,31.8l3.377,1.372a2.406,2.406,0,0,0,.907.181,2.211,2.211,0,0,0,1.242-.38,2.522,2.522,0,0,0,1.068-2.148v-4.28H46.09v3.824A13.275,13.275,0,0,0,30.082,43.354c0,.3.011.592.03.885Zm38.57,10.175a11.06,11.06,0,1,1,11.06-11.06A11.072,11.072,0,0,1,43.354,54.413Z" transform="translate(0 0)"/><path class="b" d="M124.351,360a1.106,1.106,0,1,0,0,2.212h0a1.106,1.106,0,1,0,0-2.212Z" transform="translate(-109.615 -320.184)"/><path class="b" d="M336.272,334.212h-5.265l.324-.324a1.106,1.106,0,0,0-1.564-1.564l-2.212,2.212a1.106,1.106,0,0,0,0,1.564l2.212,2.212a1.106,1.106,0,0,0,1.564-1.564l-.324-.324h5.265a2.212,2.212,0,0,1,0,4.424h-9.041a1.106,1.106,0,1,0,0,2.212h9.041a4.424,4.424,0,1,0,0-8.848Z" transform="translate(-290.057 -295.283)"/></g></svg>