<svg xmlns="http://www.w3.org/2000/svg" width="55.078" height="55.056" viewBox="0 0 55.078 55.056"><defs><style>.a{fill:#555;}.b{fill:#146cda;}</style></defs><g transform="translate(-1.975 -1.999)"><path class="a" d="M54.3,2H28.608a2.761,2.761,0,0,0-2.753,2.753V18.085a14.681,14.681,0,1,0,0,22.884V54.3a2.761,2.761,0,0,0,2.753,2.753H54.3A2.761,2.761,0,0,0,57.053,54.3V4.753A2.761,2.761,0,0,0,54.3,2ZM50.373,3.835,49.914,5.67H32.994l-.459-1.835ZM16.679,42.374A12.846,12.846,0,1,1,29.525,29.527,12.846,12.846,0,0,1,16.679,42.374ZM55.218,54.3a.918.918,0,0,1-.918.918H28.608a.918.918,0,0,1-.918-.918V39.208a14.6,14.6,0,0,0,0-19.361V4.753a.918.918,0,0,1,.918-.918h2.037l.743,2.973a.918.918,0,0,0,.89.7H50.63a.918.918,0,0,0,.89-.7l.743-2.973H54.3a.918.918,0,0,1,.918.918Z" transform="translate(0 0)"/><path class="a" d="M23.269,4.753H11.34V2.917a.918.918,0,0,0-1.5-.707L4.33,6.8a.918.918,0,0,0,0,1.413L9.836,12.8a.918.918,0,0,0,.587.211.939.939,0,0,0,.385-.083.918.918,0,0,0,.532-.835V10.258H23.269a.918.918,0,0,0,.918-.918V5.67A.918.918,0,0,0,23.269,4.753Zm-.918,3.67H10.423a.918.918,0,0,0-.918.918v.8L6.349,7.505,9.505,4.872v.8a.918.918,0,0,0,.918.918H22.351Z" transform="translate(-0.167 0)"/><path class="a" d="M23.856,54.8l-5.505-4.588a.918.918,0,0,0-1.5.707v1.835H4.918A.918.918,0,0,0,4,53.67v3.67a.918.918,0,0,0,.918.918H16.846v1.835a.918.918,0,0,0,.532.835.939.939,0,0,0,.385.083.918.918,0,0,0,.587-.211l5.505-4.588a.918.918,0,0,0,0-1.413Zm-5.175,3.34v-.8a.918.918,0,0,0-.918-.918H5.835V54.588H17.764a.918.918,0,0,0,.918-.918v-.8l3.156,2.633Z" transform="translate(-0.167 -3.956)"/><path class="b" d="M17.67,26.67a1.835,1.835,0,0,1,1.835,1.835h1.835a3.67,3.67,0,0,0-2.753-3.54V23H16.753v1.965a3.663,3.663,0,0,0,.918,7.21,1.835,1.835,0,1,1-1.835,1.835H14a3.67,3.67,0,0,0,2.753,3.54v1.965h1.835V37.551a3.663,3.663,0,0,0-.918-7.21,1.835,1.835,0,1,1,0-3.67Z" transform="translate(-0.991 -1.731)"/><path class="a" d="M9.226,23.515a11.023,11.023,0,0,0,0,15.571l1.3-1.3a9.186,9.186,0,0,1,0-12.976Z" transform="translate(-0.332 -1.773)"/><path class="a" d="M26.368,23.515l-1.3,1.3a9.186,9.186,0,0,1,0,12.976l1.3,1.3a11.023,11.023,0,0,0,0-15.571Z" transform="translate(-1.904 -1.773)"/><path class="b" d="M51.125,25.827,44.7,23.074a.924.924,0,0,0-.723,0l-6.423,2.753A.918.918,0,0,0,37,26.67V29.9a6.385,6.385,0,0,0,1.881,4.542l4.811,4.81a.918.918,0,0,0,1.3,0l4.811-4.81A6.385,6.385,0,0,0,51.681,29.9V26.67a.918.918,0,0,0-.556-.843ZM49.846,29.9A4.563,4.563,0,0,1,48.5,33.14L44.341,37.3,40.179,33.14A4.56,4.56,0,0,1,38.835,29.9V27.275l5.505-2.359,5.505,2.359Z" transform="translate(-2.887 -1.731)"/><path class="b" d="M43.59,30.128l-1.3,1.3,1.835,1.835a.918.918,0,0,0,1.3,0l3.67-3.67-1.3-1.3-3.022,3.022Z" transform="translate(-3.323 -2.167)"/></g></svg>