<svg xmlns="http://www.w3.org/2000/svg" width="54.768" height="54.768" viewBox="0 0 54.768 54.768"><defs><style>.a{fill:#146cda;}.b{fill:#555;}</style></defs><g transform="translate(0)"><g transform="translate(14.762 12.264)"><path class="a" d="M139.907,115.042a1.074,1.074,0,0,0-1.507-.144l-.013.01a1.07,1.07,0,0,0,1.368,1.645l.013-.01A1.065,1.065,0,0,0,139.907,115.042Z" transform="translate(-138.003 -114.654)"/></g><g transform="translate(18.472 8.13)"><path class="b" d="M181.6,76a19.077,19.077,0,0,0-8.3,1.878,1.07,1.07,0,1,0,.924,1.93,16.957,16.957,0,0,1,7.38-1.668,17.127,17.127,0,0,1,16.079,22.993,1.07,1.07,0,1,0,2.009.735A19.267,19.267,0,0,0,181.6,76Z" transform="translate(-172.685 -76)"/></g><g transform="translate(0 0)"><g transform="translate(0 0)"><path class="b" d="M54.415,33.451l-1.235-1.115a6.672,6.672,0,0,1,0-9.9l1.235-1.114a1.07,1.07,0,0,0,.271-1.2l-2.86-6.894a1.068,1.068,0,0,0-1.043-.658l-1.663.085a6.667,6.667,0,0,1-7-7l.085-1.663a1.07,1.07,0,0,0-.658-1.043L34.655.082a1.07,1.07,0,0,0-1.2.271L32.337,1.588a6.683,6.683,0,0,1-4.952,2.2,6.683,6.683,0,0,1-4.952-2.2L21.317.353a1.07,1.07,0,0,0-1.2-.271l-6.894,2.86a1.07,1.07,0,0,0-.658,1.043l.085,1.663a6.667,6.667,0,0,1-7,7L3.985,12.56a1.07,1.07,0,0,0-1.043.658L.082,20.113a1.07,1.07,0,0,0,.271,1.2l1.235,1.115a6.682,6.682,0,0,1,2.2,4.952,6.683,6.683,0,0,1-2.2,4.952L.353,33.451a1.07,1.07,0,0,0-.271,1.2l2.86,6.894a1.069,1.069,0,0,0,1.043.658l1.663-.085a6.667,6.667,0,0,1,7,7l-.085,1.663a1.07,1.07,0,0,0,.658,1.043l6.894,2.86a1.07,1.07,0,0,0,1.2-.271l1.115-1.235a6.672,6.672,0,0,1,9.9,0l1.114,1.235a1.07,1.07,0,0,0,1.2.271l6.894-2.86a1.07,1.07,0,0,0,.658-1.043l-.085-1.663a6.667,6.667,0,0,1,7-7l1.663.085a1.067,1.067,0,0,0,1.043-.658l2.86-6.894A1.069,1.069,0,0,0,54.415,33.451ZM50.14,40.032l-.909-.047a8.806,8.806,0,0,0-9.244,9.244l.046.909-5.5,2.281-.608-.674a8.811,8.811,0,0,0-13.081,0l-.608.674-5.5-2.281.046-.909a8.807,8.807,0,0,0-9.244-9.244l-.909.047-2.281-5.5.674-.608a8.826,8.826,0,0,0,2.907-6.54,8.826,8.826,0,0,0-2.907-6.54l-.674-.608,2.281-5.5.909.047a8.806,8.806,0,0,0,9.244-9.244l-.046-.909,5.5-2.281.608.674a8.825,8.825,0,0,0,6.54,2.907,8.825,8.825,0,0,0,6.54-2.907l.608-.674,5.5,2.281-.046.909a8.806,8.806,0,0,0,9.244,9.244l.909-.047,2.281,5.5-.674.608a8.811,8.811,0,0,0,0,13.081l.674.608Z" transform="translate(0 0)"/></g></g><g transform="translate(8.57 15.989)"><path class="a" d="M109.151,171.146l-3.923-3.923a4,4,0,0,0-4.946-.58L98.3,167.867,91.934,161.5l1.223-1.987a4,4,0,0,0-.58-4.946l-3.923-3.923a4.021,4.021,0,0,0-5.68,0,9.782,9.782,0,0,0,0,13.819l12.359,12.359a9.771,9.771,0,0,0,13.819,0A4.021,4.021,0,0,0,109.151,171.146Zm-1.513,4.167a7.712,7.712,0,0,1-1.032.864l-3.79-3.79A1.07,1.07,0,0,0,101.3,173.9l3.282,3.282a7.642,7.642,0,0,1-7.74-1.868L84.487,162.955a7.638,7.638,0,0,1-1.865-7.736l3.653,3.653a1.07,1.07,0,1,0,1.513-1.513l-4.164-4.164a7.642,7.642,0,0,1,.863-1.033,1.879,1.879,0,0,1,2.655,0l3.923,3.923a1.871,1.871,0,0,1,.271,2.311L89.669,161.1a1.07,1.07,0,0,0,.154,1.317l7.558,7.558a1.07,1.07,0,0,0,1.317.154l2.706-1.666a1.871,1.871,0,0,1,2.311.271l3.923,3.923A1.879,1.879,0,0,1,107.639,175.313Z" transform="translate(-80.117 -149.474)"/></g><g transform="translate(26.328 19.224)"><path class="b" d="M251.485,186.806h-3.216a1.42,1.42,0,0,1,1.416-1.352,2.869,2.869,0,1,0,0-5.739H247.2a1.07,1.07,0,0,0,0,2.139h2.487a.73.73,0,0,1,0,1.46,3.561,3.561,0,0,0-3.557,3.557v1a1.07,1.07,0,0,0,1.07,1.07h4.287a1.07,1.07,0,1,0,0-2.139Z" transform="translate(-246.128 -179.716)"/></g><g transform="translate(34.248 19.25)"><path class="b" d="M325.524,179.963a1.07,1.07,0,0,0-1.07,1.07v2.5h-2.148v-2.469a1.07,1.07,0,1,0-2.139,0V184.6a1.07,1.07,0,0,0,1.07,1.07h3.217v2.44a1.07,1.07,0,0,0,2.139,0v-7.077A1.07,1.07,0,0,0,325.524,179.963Z" transform="translate(-320.167 -179.963)"/></g></g></svg>