<svg xmlns="http://www.w3.org/2000/svg" width="79.865" height="50.52" viewBox="0 0 79.865 50.52"><defs><style>.a{fill:#555;}.b{fill:#146cda;}</style></defs><g transform="translate(0 -94.062)"><g transform="translate(0 94.062)"><path class="a" d="M74.274,115.479l-2.068-8.273a1.251,1.251,0,0,0,.99-1.223V104.65A5.258,5.258,0,0,0,67.944,99.4h-9.42V96.646a2.587,2.587,0,0,0-2.584-2.584H7.92a2.587,2.587,0,0,0-2.584,2.584v22.676a1.251,1.251,0,1,0,2.5,0V96.646a.083.083,0,0,1,.083-.083H55.939a.083.083,0,0,1,.083.083v22.676a1.251,1.251,0,1,0,2.5,0V117.9H73.282a4.092,4.092,0,0,1,3.886,2.834H73.279a1.251,1.251,0,0,0-1.251,1.251v2.668a3.923,3.923,0,0,0,3.918,3.918h1.417v5.5h-3.27a7.917,7.917,0,0,0-14.969,0h-.6v-9.421a1.251,1.251,0,1,0-2.5,0v9.42H30.077a7.917,7.917,0,0,0-14.969,0H7.92a.083.083,0,0,1-.083-.083v-2.751h5.419a1.251,1.251,0,1,0,0-2.5h-12a1.251,1.251,0,1,0,0,2.5H5.336v2.751a2.587,2.587,0,0,0,2.584,2.584h6.755c0,.028,0,.055,0,.083a7.92,7.92,0,0,0,15.84,0c0-.028,0-.056,0-.083H58.692c0,.028,0,.055,0,.083a7.92,7.92,0,0,0,15.84,0c0-.028,0-.056,0-.083h4.087a1.251,1.251,0,0,0,1.251-1.251V121.99A6.6,6.6,0,0,0,74.274,115.479ZM58.524,101.9h9.42A2.754,2.754,0,0,1,70.7,104.65v.083H58.524Zm0,13.505v-8.17H69.635l2.042,8.17ZM22.592,142.081a5.419,5.419,0,1,1,5.419-5.419A5.425,5.425,0,0,1,22.592,142.081Zm44.018,0a5.419,5.419,0,1,1,5.419-5.419A5.425,5.425,0,0,1,66.61,142.081Zm10.754-16.006H75.947a1.419,1.419,0,0,1-1.417-1.417V123.24h2.834v2.835Z" transform="translate(0 -94.062)"/></g><g transform="translate(20.008 134.078)"><g transform="translate(0 0)"><path class="b" d="M130.851,350.6a2.584,2.584,0,1,0,2.584,2.584A2.587,2.587,0,0,0,130.851,350.6Z" transform="translate(-128.267 -350.597)"/></g></g><g transform="translate(64.026 134.078)"><g transform="translate(0 0)"><path class="b" d="M413.039,350.6a2.584,2.584,0,1,0,2.584,2.584A2.587,2.587,0,0,0,413.039,350.6Z" transform="translate(-410.455 -350.597)"/></g></g><g transform="translate(32.013 128.743)"><g transform="translate(0 0)"><path class="a" d="M225.152,316.393H206.478a1.251,1.251,0,1,0,0,2.5h18.674a1.251,1.251,0,1,0,0-2.5Z" transform="translate(-205.227 -316.393)"/></g></g><g transform="translate(2.668 123.407)"><path class="a" d="M34.359,282.188H18.353a1.251,1.251,0,0,0,0,2.5H34.359a1.251,1.251,0,1,0,0-2.5Z" transform="translate(-17.102 -282.188)"/></g><g transform="translate(22.676 106.067)"><path class="b" d="M166.179,171.389a1.251,1.251,0,0,0-1.768,0l-11.121,11.12-5.785-5.785a1.25,1.25,0,0,0-1.768,1.768l6.669,6.669a1.25,1.25,0,0,0,1.768,0l12-12A1.251,1.251,0,0,0,166.179,171.389Z" transform="translate(-145.37 -171.023)"/></g></g></svg>